<?xml version="1.0" encoding="UTF-8"?>
<svg id="Layer_1" xmlns="http://www.w3.org/2000/svg" version="1.1" viewBox="0 0 2500 2500">
  <!-- Generator: Adobe Illustrator 29.4.0, SVG Export Plug-In . SVG Version: 2.1.0 Build 152)  -->
  <defs>
    <style>
      .st0 {
        fill: #fff;
      }

      .st1 {
        fill: #fa0f00;
      }
    </style>
  </defs>
  <path class="st1" d="M450,12.5h1599.9c243.1,0,437.5,201.7,437.5,453.7v1567.5c0,252.1-194.5,453.8-437.5,453.8H450c-243.1,0-437.5-201.7-437.5-453.8V466.2C12.5,214.2,207,12.5,450,12.5Z"/>
  <path class="st0" d="M1986.1,1440c-114.9-119.3-428.7-70.7-503.8-61.9-110.5-106.1-185.6-234.2-212.1-278.4,39.8-119.3,66.3-238.7,70.7-366.8,0-110.5-44.2-229.8-167.9-229.8s-84,26.5-106.1,61.9c-53,92.8-30.9,278.4,53,468.5-48.6,137-92.8,269.6-216.6,503.8-128.2,53-397.8,176.8-419.9,309.4-8.8,39.8,4.4,79.6,35.4,110.5,30.9,26.5,70.7,39.8,110.5,39.8,163.5,0,322.6-225.4,433.1-415.4,92.8-30.9,238.7-75.1,384.5-101.7,172.4,150.3,322.6,172.4,402.2,172.4s145.8-44.2,159.1-84c22.1-44.2,8.8-92.8-22.1-128.2h0ZM1875.7,1515.2c-4.4,30.9-44.2,61.9-114.9,44.2-84-22.1-159.1-61.9-225.4-114.9,57.5-8.8,185.6-22.1,278.4-4.4,35.4,8.8,70.7,30.9,61.9,75.1h0ZM1137.6,604.7c8.8-13.3,22.1-22.1,35.4-22.1,39.8,0,48.6,48.6,48.6,88.4-4.4,92.8-22.1,185.6-53,274-66.3-176.8-53-300.5-30.9-340.3h0ZM1128.7,1462.1c35.4-70.7,84-194.5,101.7-247.5,39.8,66.3,106.1,145.8,141.4,181.2,0,4.4-137,30.9-243.1,66.3ZM868,1638.9c-101.7,167.9-207.7,274-265.2,274s-17.7-4.4-26.5-8.8c-13.3-8.8-17.7-22.1-13.3-39.8,13.3-61.9,128.2-145.8,305-225.4Z"/>
</svg>