<?xml version="1.0" encoding="UTF-8"?>
<svg
  id="mail"
  xmlns="http://www.w3.org/2000/svg"
  xmlns:xlink="http://www.w3.org/1999/xlink"
  xmlns:svg="http://www.w3.org/2000/svg"
  xmlns:sodipodi="http://sodipodi.sourceforge.net/DTD/sodipodi-0.dtd"
  xmlns:rdf="http://www.w3.org/1999/02/22-rdf-syntax-ns#"
  xmlns:inkscape="http://www.inkscape.org/namespaces/inkscape"
  xmlns:dc="http://purl.org/dc/elements/1.1/"
  xmlns:cc="http://creativecommons.org/ns#"
  version="1.1"
  viewBox="0 0 250 250"
>
  <defs>
    <style>
      .st0 {
        fill: url(#linear-gradient);
      }

      .st1 {
        fill: #fff;
      }
    </style>
    <linearGradient
      id="linear-gradient"
      x1="124.9"
      y1="3"
      x2="125.1"
      y2="245"
      gradientUnits="userSpaceOnUse"
    >
      <stop offset="0" stop-color="#5770ff" />
      <stop offset="1" stop-color="#70efff" />
    </linearGradient>
  </defs>
  <g id="mail_g">
    <rect
      class="st0"
      x="2"
      y="2"
      width="246"
      height="246"
      rx="45.2"
      ry="45.2"
    />
    <path
      id="envelope"
      class="st1"
      d="M54.3,73.1c-1.3,0-2.5.2-3.7.7l23.1,23.8,23.4,24.3.4.5.7.7.7.7,1.4,1.5,20.1,20.6c.3.2,1.3,1.1,2.1,1.5,1,.5,2,.9,3.1,1,1.2,0,2.4-.3,3.4-.8.8-.4,1.1-.9,2.1-1.6l23.2-24,23.5-24.2,22.6-23.3c-1.5-.8-3.1-1.2-4.8-1.2H54.3ZM47.2,76c-2.5,2.3-4,5.9-4,9.8v78.2c0,3.2,1,6.1,2.7,8.4l3.2-3.1,24.2-23.5,21.4-20.8-.4-.5-23.5-24.2-23.5-24.3-.2-.2ZM203.5,76.8l-22.9,23.7-23.4,24.2-.4.4,22.3,21.6,24.2,23.5,1.5,1.4c1.3-2.1,2-4.7,2-7.4v-78.2c0-3.5-1.2-6.7-3.2-9.1ZM97.5,127.9l-21.4,20.8-24.3,23.5-3.1,3c1.6,1,3.5,1.7,5.5,1.7h141.4c2.4,0,4.6-.9,6.4-2.4l-1.5-1.5-24.3-23.5-22.3-21.5-20.1,20.7c-1.1.7-1.8,1.5-2.9,2-1.7.8-3.6,1.5-5.5,1.4-1.9,0-3.7-.8-5.4-1.6-.8-.4-1.3-.8-2.3-1.7l-20.3-20.8Z"
      inkscape:connector-curvature="0"
      sodipodi:nodetypes="sccccccccaaaccccsscsscccccccccccccccsscccccsscccccaaacc"
    />
  </g>
</svg>
