<?xml version="1.0" encoding="UTF-8"?>
<svg id="calender" xmlns="http://www.w3.org/2000/svg" xmlns:xlink="http://www.w3.org/1999/xlink" version="1.1" viewBox="0 0 250 250">
  <!-- Generator: Adobe Illustrator 29.4.0, SVG Export Plug-In . SVG Version: 2.1.0 Build 152)  -->
  <defs>
    <style>
      .st0 {
        fill: url(#linear-gradient);
      }

      .st1 {
        display: none;
        fill: url(#linear-gradient1);
      }
    </style>
    <linearGradient id="linear-gradient" x1="64.7" y1="125" x2="185.3" y2="125" gradientUnits="userSpaceOnUse">
      <stop offset="0" stop-color="#16ff6a"/>
      <stop offset="1" stop-color="#0090a5"/>
    </linearGradient>
    <linearGradient id="linear-gradient1" x1="1127.9" y1="-318.4" x2="1379.3" y2="-613.7" gradientTransform="translate(-920.5 -264.7) scale(.8 -.8)" xlink:href="#linear-gradient"/>
  </defs>
  <path class="st0" d="M171.9,64.7v-8.9c0-2.5-2-4.5-4.5-4.5h-4.5c-2.5,0-4.5,2-4.5,4.5,0,0,0,0,0,0v8.9M91.5,64.7v-8.9c0-2.5-2-4.5-4.5-4.5h-4.5c-2.5,0-4.5,2-4.5,4.5,0,0,0,0,0,0v8.9M64.7,78.1h120.6v13.4h-120.6v-13.4ZM64.7,104.9h120.6v93.8h-120.6v-93.8ZM78.1,118.3v13.4h13.4v-13.4h-13.4ZM104.9,118.3v13.4h13.4v-13.4h-13.4ZM131.7,118.3v13.4h13.4v-13.4h-13.4ZM158.5,118.3v13.4h13.4v-13.4h-13.4ZM78.1,145.1v13.4h13.4v-13.4h-13.4ZM104.9,145.1v13.4h13.4v-13.4h-13.4ZM131.7,145.1v13.4h13.4v-13.4h-13.4ZM158.5,145.1v13.4h13.4v-13.4h-13.4ZM78.1,171.9v13.4h13.4v-13.4h-13.4ZM104.9,171.9v13.4h13.4v-13.4h-13.4ZM131.7,171.9v13.4h13.4v-13.4h-13.4Z"/>
  <rect class="st1" x="2.5" y="2.5" width="245" height="245" rx="5.5" ry="5.5"/>
</svg>