<?xml version="1.0" encoding="UTF-8"?>
<svg id="Layer_2" data-name="Layer 2" xmlns="http://www.w3.org/2000/svg" viewBox="0 0 300.23 300.23">
  <defs>
    <style>
      .cls-1 {
        fill: #000;
      }

      .cls-1, .cls-2 {
        stroke-width: 0px;
      }

      .cls-2 {
        fill: #fff;
      }
    </style>
  </defs>
  <g id="ed_logo_d3_b_grey_rast_w_stroke_Image" data-name="ed logo d3 b grey rast w stroke Image">
    <rect class="cls-2" width="300.23" height="300.23"/>
    <g>
      <path class="cls-1" d="M13.09,268.83c-2.41,0-4.57-1.28-5.8-3.4-1.25-2.16-1.26-4.72-.03-6.85L106.25,87.52l12.76-22.09v.02s23.42-40.45,23.42-40.45c1.22-2.1,3.39-3.36,5.82-3.36s4.61,1.26,5.83,3.37l115.59,200.68,24.94,43.13H13.09ZM31.16,246.82c-.86,1.48-.86,3.25,0,4.73.85,1.48,2.38,2.37,4.09,2.37l128.07.13-14.71-45.36H53.23l-22.07,38.13ZM173.21,252.9l25.52-44.21h-39.86l14.34,44.21ZM200.19,206.16l20.02-34.68h-40.06l20.03,34.68ZM163.12,186.43l-44.14-76.45-44.14,76.45h88.27ZM215.52,161.31l-67.28-116.81-20.71,35.8,46.77,81.01h41.22Z"/>
      <path class="cls-2" d="M148.25,22.65c1.93,0,3.86.96,4.96,2.87l115.59,200.68,24.07,41.63H13.09c-4.41,0-7.16-4.94-4.96-8.75L107.12,88.02l11.86-20.53v.02s24.32-42,24.32-42c1.1-1.91,3.03-2.86,4.96-2.86M173.72,162.31h43.53l-69.01-119.81-21.87,37.8,47.35,82.01M73.11,187.43h91.74l-45.87-79.45-45.87,79.45M172.86,255.05h.26l48.83-84.58h-43.52l21.49,37.21h-42.42l15.36,47.37M164.7,255.04l-15.36-47.36H52.66l-22.36,38.63c-2.21,3.82.54,8.59,4.95,8.6l129.45.13M148.25,20.65c-2.79,0-5.29,1.44-6.69,3.86l-22.46,38.8h0s-1.86,3.18-1.86,3.18l-11.86,20.53L6.4,258.08c-1.41,2.44-1.4,5.37.03,7.85,1.4,2.44,3.89,3.9,6.66,3.9h283.26l-1.74-3-24.07-41.63L154.95,24.53c-1.4-2.42-3.9-3.87-6.7-3.87h0ZM128.68,80.31l19.56-33.8,65.55,113.81h-38.92l-46.19-80.01h0ZM76.57,185.43l42.41-73.45,42.41,73.45h-84.81ZM181.89,172.47h36.59l-18.29,31.68-18.3-31.68h0ZM160.25,209.68h36.75l-23.53,40.76-13.22-40.76h0ZM53.81,209.68h94.07l14.06,43.36-126.7-.13c-1.35,0-2.56-.7-3.23-1.87-.67-1.17-.67-2.56,0-3.73l21.78-37.63h0Z"/>
    </g>
  </g>
</svg>