<?xml version="1.0" encoding="UTF-8"?>
<svg id="Layer_1" data-name="Layer 1" xmlns="http://www.w3.org/2000/svg" viewBox="0 0 650 650">
  <g id="EDI-Logo-Hexagon_cursive_E" data-name="EDI-Logo-Hexagon_cursive E">
    <path d="M460.48,7.93l181.59,181.59c1.88,1.88,2.93,4.42,2.93,7.07v256.81c0,2.65-1.05,5.2-2.93,7.07l-181.59,181.59c-1.88,1.88-4.42,2.93-7.07,2.93H196.59c-2.65,0-5.2-1.05-7.07-2.93L7.93,460.48c-1.88-1.88-2.93-4.42-2.93-7.07V196.59c0-2.65,1.05-5.2,2.93-7.07L189.52,7.93c1.88-1.88,4.42-2.93,7.07-2.93h256.81c2.65,0,5.2,1.05,7.07,2.93Z" fill-rule="evenodd" stroke="#fff" stroke-miterlimit="10" stroke-width="1.7"/>
    <path d="M434.14,71.51l144.35,144.35c1.88,1.88,2.93,4.42,2.93,7.07v204.14c0,2.65-1.05,5.2-2.93,7.07l-144.35,144.35c-1.88,1.88-4.42,2.93-7.07,2.93h-204.14c-2.65,0-5.2-1.05-7.07-2.93l-144.35-144.35c-1.88-1.88-2.93-4.42-2.93-7.07v-204.14c0-2.65,1.05-5.2,2.93-7.07L215.86,71.51c1.88-1.88,4.42-2.93,7.07-2.93h204.14c2.65,0,5.2,1.05,7.07,2.93Z" fill="#fff" fill-rule="evenodd"/>
    <g>
      <g>
        <path d="M543.13,245.97v158.06c0,7.27-2.87,14.2-8,19.31l-111.78,111.78c-5.11,5.14-12.07,8-19.31,8h-201.96c-7.54,0-13.66-6.12-13.66-13.66V120.53c0-7.54,6.12-13.66,13.66-13.66h201.96c7.24,0,14.21,2.87,19.31,8l111.78,111.78c5.14,5.11,8,12.07,8,19.31Z" fill-rule="evenodd"/>
        <path d="M491.74,267.25v115.5c0,7.27-2.87,14.2-8,19.31l-81.68,81.68c-5.11,5.14-12.07,8-19.31,8h-139.7V158.26h139.7c7.24,0,14.2,2.87,19.31,8l81.68,81.68c5.14,5.11,8,12.07,8,19.31Z" fill="#fff" fill-rule="evenodd"/>
      </g>
      <path d="M466.01,277.91v94.19c0,7.24-2.9,14.2-8,19.31l-66.6,66.6c-5.14,5.14-12.07,8-19.31,8h-103.37V183.99h103.37c7.24,0,14.18,2.9,19.31,8l66.6,66.6c5.11,5.14,8,12.07,8,19.31Z" fill-rule="evenodd"/>
    </g>
    <rect x="61.6" y="306.58" width="130.35" height="63.59"/>
    <g id="e">
      <path d="M352.47,229.95c7.17,0,13.15,2.39,17.94,7.18,5.57,5.59,8.17,11.77,7.77,18.53-.41,6.78-2.6,13.36-6.58,19.73-5.59,11.96-12.76,22.53-21.52,31.69-8.78,9.17-18.74,17.34-29.89,24.51-13.56,8.78-22.33,19.13-26.31,31.09-4,11.96-6.39,27.11-7.17,45.44,21.52-6.37,40.24-14.54,56.2-24.51,15.94-9.96,31.09-20.12,45.44-30.49,15.13-10.35,30.08-20.51,44.84-30.49,14.74-9.96,29.69-20.51,44.84-31.68,3.98,8.78,3.98,14.55,0,17.34-4,2.8-7.98,5.38-11.96,7.77-21.52,15.95-42.86,31.89-63.97,47.83-21.13,15.95-43.25,30.3-66.36,43.04-7.17,4-14.16,7.77-20.92,11.36-6.78,3.59-14.16,6.18-22.12,7.77-8.78,0-15.95-1.38-21.52-4.19-5.59-2.78-9.56-8.97-11.96-18.53-3.19-11.96-3.19-26.31,0-43.04,3.18-16.74,8.37-33.48,15.55-50.22,7.17-16.74,15.93-31.87,26.3-45.44,10.35-13.55,20.72-23.11,31.09-28.7,6.37-3.98,13.15-5.98,20.33-5.98ZM357.26,253.86c-11.17,6.39-18.94,13.36-23.32,20.92-4.39,7.59-6.99,16.94-7.77,28.1,8.76-3.98,15.93-9.57,21.52-16.74,5.57-7.17,8.76-17.94,9.57-32.28Z" fill="#fff"/>
    </g>
  </g>
</svg>