<?xml version="1.0" encoding="UTF-8"?>
<svg xmlns="http://www.w3.org/2000/svg" viewBox="0 0 291 249.18">
  <defs>
    <style>
      .cls-1 {
        fill: #000;
      }

      .cls-1, .cls-2 {
        stroke-width: 0px;
      }

      .cls-2 {
        fill: #fff;
      }
    </style>
  </defs>
  <g>
    <g>
      <path class="cls-1" d="M7.74,248.18c-2.41,0-4.57-1.28-5.8-3.4-1.25-2.16-1.26-4.72-.03-6.85L100.91,66.87l12.75-22.07v.02s23.43-40.47,23.43-40.47c1.22-2.1,3.39-3.36,5.82-3.36s4.61,1.26,5.83,3.37l115.59,200.68,24.94,43.13H7.74ZM25.82,226.16c-.86,1.48-.86,3.25,0,4.73.85,1.48,2.38,2.37,4.09,2.37l128.07.13-14.71-45.36H47.89l-22.07,38.13ZM167.86,232.24l25.52-44.21h-39.86l14.34,44.21ZM194.84,185.5l20.02-34.68h-40.06l20.03,34.68ZM157.77,165.78l-44.14-76.45-44.14,76.45h88.27ZM210.17,140.66L142.89,23.85l-20.71,35.8,46.77,81.01h41.22Z"/>
      <path class="cls-2" d="M142.91,2c1.93,0,3.86.96,4.96,2.87l115.59,200.68,24.07,41.63H7.74c-4.41,0-7.16-4.94-4.96-8.75L101.77,67.37l11.86-20.53v.02s24.32-42,24.32-42c1.1-1.91,3.03-2.86,4.96-2.86M168.37,141.66h43.53L142.89,21.85l-21.87,37.8,47.35,82.01M67.76,166.78h91.74l-45.87-79.45-45.87,79.45M167.51,234.4h.26l48.83-84.58h-43.52l21.49,37.21h-42.42l15.36,47.37M159.35,234.39l-15.36-47.36H47.31l-22.36,38.63c-2.21,3.82.54,8.59,4.95,8.6l129.45.13M142.91,0c-2.79,0-5.29,1.44-6.69,3.86l-22.46,38.8h0s-1.86,3.18-1.86,3.18l-11.86,20.53L1.05,237.43c-1.41,2.44-1.4,5.37.03,7.85,1.4,2.44,3.89,3.9,6.66,3.9h283.26l-1.74-3-24.07-41.63L149.6,3.87c-1.4-2.42-3.9-3.87-6.7-3.87h0ZM123.33,59.65l19.56-33.8,65.55,113.81h-38.92l-46.19-80.01h0ZM71.22,164.78l42.41-73.45,42.41,73.45h-84.81ZM176.55,151.82h36.59l-18.29,31.68-18.3-31.68h0ZM154.9,189.03h36.75l-23.53,40.76-13.22-40.76h0ZM48.46,189.03h94.07l14.06,43.36-126.7-.13c-1.35,0-2.56-.7-3.23-1.87-.67-1.17-.67-2.56,0-3.73l21.78-37.63h0Z"/>
    </g>
  </g>
</svg>