<svg viewBox="0 0 48 48" fill="none" xmlns="http://www.w3.org/2000/svg">
<path d="M40.6245 14.8373C40.431 14.9588 35.8238 17.5155 35.8238 23.1847C36.0413 29.6505 41.6377 31.9177 41.7338 31.9177C41.6377 32.0392 40.8885 35.007 38.67 38.118C36.9098 40.7985 34.9553 43.5 31.9875 43.5C29.1645 43.5 28.1512 41.7142 24.894 41.7142C21.396 41.7142 20.406 43.5 17.7277 43.5C14.76 43.5 12.6607 40.6538 10.8037 37.9987C8.39175 34.524 6.34125 29.0715 6.2685 23.8365C6.21975 21.0623 6.7515 18.3352 8.1015 16.0192C10.0072 12.7852 13.4093 10.5907 17.1248 10.518C19.971 10.422 22.5045 12.4725 24.2423 12.4725C25.9073 12.4725 29.0198 10.518 32.541 10.518C34.0613 10.5195 38.115 10.977 40.6245 14.8373ZM24.0015 9.96375C23.4945 7.43025 24.894 4.89675 26.1967 3.2805C27.8618 1.32675 30.4913 0 32.7585 0C32.9033 2.5335 31.986 5.01825 30.3465 6.828C28.875 8.7825 26.3415 10.2533 24.0015 9.96375Z" fill="url(#paint0_linear_201_3)"/>
<defs>
<linearGradient id="paint0_linear_201_3" x1="41.625" y1="-0.749998" x2="9.75" y2="39.75" gradientUnits="userSpaceOnUse">
<stop stop-color="#C2B3FF"/>
<stop offset="0.5" stop-color="#9C83FF"/>
<stop offset="1" stop-color="#574A8B"/>
</linearGradient>
</defs>
</svg>
